<svg xmlns="http://www.w3.org/2000/svg" viewBox="0 0 512 512" width="512" height="512">
  <defs>
    <linearGradient id="bg" x1="0" y1="0" x2="1" y2="1">
      <stop offset="0%" stop-color="#1a6b9a"/>
      <stop offset="100%" stop-color="#0d4d73"/>
    </linearGradient>
  </defs>
  <!-- Maskable icon: full bleed background, safe area is inner 80% -->
  <rect width="512" height="512" fill="url(#bg)"/>
  <!-- Calendar body - centered in safe area -->
  <rect x="120" y="160" width="260" height="230" rx="20" fill="white" opacity="0.95"/>
  <rect x="120" y="160" width="260" height="52" rx="20" fill="#ff7043"/>
  <rect x="120" y="195" width="260" height="17" fill="#ff7043"/>
  <rect x="180" y="142" width="12" height="38" rx="6" fill="white"/>
  <rect x="250" y="142" width="12" height="38" rx="6" fill="white"/>
  <rect x="320" y="142" width="12" height="38" rx="6" fill="white"/>
  <circle cx="178" cy="268" r="15" fill="#1a6b9a"/>
  <circle cx="226" cy="268" r="15" fill="#1a6b9a"/>
  <circle cx="274" cy="268" r="15" fill="#1a6b9a"/>
  <circle cx="322" cy="268" r="15" fill="#1a6b9a"/>
  <circle cx="178" cy="318" r="15" fill="#1a6b9a"/>
  <circle cx="226" cy="318" r="15" fill="#1a6b9a"/>
  <circle cx="274" cy="318" r="15" fill="#1a6b9a"/>
  <circle cx="322" cy="318" r="15" fill="rgba(26,107,154,0.3)"/>
  <circle cx="178" cy="362" r="15" fill="#1a6b9a"/>
  <circle cx="226" cy="362" r="15" fill="rgba(26,107,154,0.3)"/>
</svg>
