<svg xmlns="http://www.w3.org/2000/svg" viewBox="0 0 512 512" width="512" height="512">
  <defs>
    <linearGradient id="bg" x1="0" y1="0" x2="1" y2="1">
      <stop offset="0%" stop-color="#1a6b9a"/>
      <stop offset="100%" stop-color="#0d4d73"/>
    </linearGradient>
  </defs>
  <rect width="512" height="512" rx="80" fill="url(#bg)"/>
  <!-- Calendar body -->
  <rect x="80" y="130" width="340" height="290" rx="24" fill="white" opacity="0.95"/>
  <!-- Calendar header bar -->
  <rect x="80" y="130" width="340" height="65" rx="24" fill="#ff7043"/>
  <rect x="80" y="170" width="340" height="25" fill="#ff7043"/>
  <!-- Calendar rings -->
  <rect x="152" y="108" width="14" height="50" rx="7" fill="white"/>
  <rect x="242" y="108" width="14" height="50" rx="7" fill="white"/>
  <rect x="332" y="108" width="14" height="50" rx="7" fill="white"/>
  <!-- Grid dots (treatment days) -->
  <circle cx="140" cy="250" r="18" fill="#1a6b9a"/>
  <circle cx="200" cy="250" r="18" fill="#1a6b9a"/>
  <circle cx="260" cy="250" r="18" fill="#1a6b9a"/>
  <circle cx="320" cy="250" r="18" fill="#1a6b9a"/>
  <circle cx="140" cy="310" r="18" fill="#1a6b9a"/>
  <circle cx="200" cy="310" r="18" fill="#1a6b9a"/>
  <circle cx="260" cy="310" r="18" fill="#1a6b9a"/>
  <circle cx="320" cy="310" r="18" fill="rgba(26,107,154,0.3)"/>
  <circle cx="140" cy="370" r="18" fill="#1a6b9a"/>
  <circle cx="200" cy="370" r="18" fill="rgba(26,107,154,0.3)"/>
  <circle cx="260" cy="370" r="18" fill="rgba(26,107,154,0.3)"/>
  <!-- Radiation symbol -->
  <circle cx="400" cy="110" r="56" fill="#ffc107" opacity="0.95"/>
  <circle cx="400" cy="110" r="12" fill="#0d4d73"/>
  <path d="M400 98 L400 62" stroke="#0d4d73" stroke-width="9" stroke-linecap="round"/>
  <path d="M410.4 104 L438 87" stroke="#0d4d73" stroke-width="9" stroke-linecap="round"/>
  <path d="M410.4 116 L438 133" stroke="#0d4d73" stroke-width="9" stroke-linecap="round"/>
  <path d="M400 122 L400 158" stroke="#0d4d73" stroke-width="9" stroke-linecap="round"/>
  <path d="M389.6 116 L362 133" stroke="#0d4d73" stroke-width="9" stroke-linecap="round"/>
  <path d="M389.6 104 L362 87" stroke="#0d4d73" stroke-width="9" stroke-linecap="round"/>
</svg>
