<svg xmlns="http://www.w3.org/2000/svg" viewBox="0 0 192 192" width="192" height="192">
  <defs>
    <linearGradient id="bg" x1="0" y1="0" x2="1" y2="1">
      <stop offset="0%" stop-color="#1a6b9a"/>
      <stop offset="100%" stop-color="#0d4d73"/>
    </linearGradient>
  </defs>
  <rect width="192" height="192" rx="32" fill="url(#bg)"/>
  <!-- Calendar body -->
  <rect x="36" y="52" width="120" height="104" rx="10" fill="white" opacity="0.95"/>
  <!-- Calendar header bar -->
  <rect x="36" y="52" width="120" height="28" rx="10" fill="#ff7043"/>
  <rect x="36" y="70" width="120" height="10" fill="#ff7043"/>
  <!-- Calendar rings -->
  <rect x="62" y="42" width="6" height="22" rx="3" fill="white"/>
  <rect x="92" y="42" width="6" height="22" rx="3" fill="white"/>
  <rect x="122" y="42" width="6" height="22" rx="3" fill="white"/>
  <!-- Grid dots (treatment days) -->
  <circle cx="58" cy="100" r="7" fill="#1a6b9a"/>
  <circle cx="80" cy="100" r="7" fill="#1a6b9a"/>
  <circle cx="102" cy="100" r="7" fill="#1a6b9a"/>
  <circle cx="124" cy="100" r="7" fill="#1a6b9a"/>
  <circle cx="58" cy="122" r="7" fill="#1a6b9a"/>
  <circle cx="80" cy="122" r="7" fill="#1a6b9a"/>
  <circle cx="102" cy="122" r="7" fill="#1a6b9a"/>
  <circle cx="124" cy="122" r="7" fill="rgba(26,107,154,0.3)"/>
  <circle cx="58" cy="143" r="7" fill="#1a6b9a"/>
  <circle cx="80" cy="143" r="7" fill="rgba(26,107,154,0.3)"/>
  <circle cx="102" cy="143" r="7" fill="rgba(26,107,154,0.3)"/>
  <!-- Radiation symbol -->
  <circle cx="146" cy="46" r="22" fill="#ffc107" opacity="0.95"/>
  <circle cx="146" cy="46" r="5" fill="#0d4d73"/>
  <path d="M146 41 L146 26" stroke="#0d4d73" stroke-width="4" stroke-linecap="round"/>
  <path d="M150.3 43.5 L162 35" stroke="#0d4d73" stroke-width="4" stroke-linecap="round"/>
  <path d="M150.3 48.5 L162 57" stroke="#0d4d73" stroke-width="4" stroke-linecap="round"/>
  <path d="M146 51 L146 66" stroke="#0d4d73" stroke-width="4" stroke-linecap="round"/>
  <path d="M141.7 48.5 L130 57" stroke="#0d4d73" stroke-width="4" stroke-linecap="round"/>
  <path d="M141.7 43.5 L130 35" stroke="#0d4d73" stroke-width="4" stroke-linecap="round"/>
</svg>
